<svg width="20" height="16" viewBox="0 0 20 16" fill="none" xmlns="http://www.w3.org/2000/svg">
<path d="M19.9998 1.6C19.9998 0.716288 19.4626 0 18.7998 0H1.9998C1.33702 0 0.799805 0.716288 0.799805 1.6C0.799805 2.48371 1.33702 3.2 1.9998 3.2H18.7998C19.4626 3.2 19.9998 2.48371 19.9998 1.6Z" fill="#666666"/>
<path d="M16.3999 8.00039C16.3999 7.11668 15.8627 6.40039 15.1999 6.40039H5.5999C4.93712 6.40039 4.3999 7.11668 4.3999 8.00039C4.3999 8.8841 4.93712 9.60039 5.5999 9.60039H15.1999C15.8627 9.60039 16.3999 8.8841 16.3999 8.00039Z" fill="#666666"/>
<path d="M12.8 14.3998C12.8 13.5161 12.2628 12.7998 11.6 12.7998H9.2C8.53722 12.7998 8 13.5161 8 14.3998C8 15.2835 8.53722 15.9998 9.2 15.9998H11.6C12.2628 15.9998 12.8 15.2835 12.8 14.3998Z" fill="#666666"/>
</svg>
