<svg width="141" height="140" viewBox="0 0 141 140" fill="none" xmlns="http://www.w3.org/2000/svg">
<path d="M67.0857 73.697C62.9216 66.9381 54.9536 62.242 46.9915 62.242H46.9842L46.9768 62.242L15.0832 62.4023V45.5587C15.0832 35.522 18.0636 27.8614 23.2122 22.7127C28.3609 17.5641 36.0215 14.5837 46.0582 14.5837H94.9415C104.978 14.5837 112.639 17.5641 117.787 22.7127C122.936 27.8614 125.917 35.522 125.917 45.5587V70.0003H105.406C105.381 69.9886 105.353 69.9751 105.323 69.9599C105.257 69.9267 105.188 69.8886 105.119 69.8472C105.05 69.8058 104.987 69.7644 104.932 69.7255C104.92 69.7172 104.909 69.7092 104.899 69.7016L98.9816 58.4933C98.9812 58.4926 98.9809 58.4919 98.9805 58.4912C96.1515 53.1109 91.0361 49.7514 85.2799 50.0544C79.5022 50.3584 74.8368 54.2461 72.5733 59.9384L72.574 59.9365L75.2832 61.017L72.5729 59.9394L67.0857 73.697Z" fill="#848484" stroke="#848484" stroke-width="5.83333"/>
<path d="M125.917 84.5808V94.4392C125.917 104.287 123.058 111.835 118.108 116.965C113.163 122.091 105.809 125.137 96.1584 125.357L96.0876 125.358L96.017 125.363C95.3231 125.413 94.5557 125.414 93.6582 125.414H46.9915C46.3223 125.414 45.7584 125.412 45.2722 125.368L45.1652 125.358L45.0577 125.356C35.3517 125.191 27.9427 122.157 22.9579 117.024C17.9687 111.886 15.0832 104.312 15.0832 94.4392V76.9829L47.0498 76.8225C47.052 76.8225 47.0542 76.8225 47.0563 76.8225C48.54 76.8242 50.2939 77.4065 51.8823 78.489C53.4735 79.5733 54.6482 80.9887 55.1786 82.3638L55.1832 82.3757L55.1879 82.3876L61.8379 99.1877L61.8418 99.1974C62.309 100.366 62.9274 101.452 63.7519 102.291C64.5888 103.143 65.7886 103.875 67.2842 103.875C68.7848 103.875 69.9864 103.138 70.8216 102.275C71.6383 101.431 72.2418 100.341 72.6917 99.1752L86.0866 65.3386L92.1262 76.7791C92.1266 76.78 92.1271 76.7808 92.1275 76.7816C93.3336 79.0756 95.3654 80.9926 97.5725 82.3289C99.7807 83.6659 102.427 84.5808 105.033 84.5808H125.917Z" fill="#848484" stroke="#848484" stroke-width="5.83333"/>
<path d="M12.1682 74.084V93.3923C12.0515 91.5257 11.9932 89.5423 11.9932 87.5007V74.084H12.1682Z" fill="#848484"/>
</svg>
