<svg width="25" height="24" viewBox="0 0 25 24" fill="none" xmlns="http://www.w3.org/2000/svg">
<path d="M19.2122 18.0505L19.1009 18.1288L19.0446 18.2527L17.7061 21.1996C17.7059 21.2 17.7057 21.2005 17.7055 21.2009C17.544 21.5475 17.0927 21.5968 16.8657 21.3214L16.8643 21.3199L15.3843 19.5399L15.2344 19.3595H14.9999C13.4437 19.3595 12.0052 18.8901 10.8544 18.0969L10.9786 17.9499C15.7335 17.4882 19.4999 13.6781 19.4999 8.99953C19.4999 8.60365 19.4718 8.21095 19.4184 7.82391C20.9985 9.02008 21.9999 10.8395 21.9999 12.8595C21.9999 14.9704 20.9131 16.8544 19.2122 18.0505Z" fill="#7761FF" stroke="#7761FF"/>
<path d="M16.3506 6.2891L16.3505 6.28912L16.3538 6.29561C16.7696 7.11794 17 8.03089 17 9C17 12.5617 13.8972 15.5 10 15.5H9.76528L9.61533 15.6806L8.68589 16.7999L8.68533 16.8006L8.13701 17.4586C8.13685 17.4588 8.13669 17.4589 8.13653 17.4591C7.90413 17.7352 7.45227 17.6802 7.29441 17.3414C7.2942 17.3409 7.29399 17.3405 7.29378 17.34L5.95524 14.3932L5.89895 14.2693L5.78764 14.191C4.08681 12.9948 3 11.1109 3 9C3 5.43834 6.1028 2.5 10 2.5C12.8374 2.5 15.2681 4.06858 16.3506 6.2891ZM7.5 10.25H12.5C13.1861 10.25 13.75 9.68614 13.75 9C13.75 8.31386 13.1861 7.75 12.5 7.75H7.5C6.81386 7.75 6.25 8.31386 6.25 9C6.25 9.68614 6.81386 10.25 7.5 10.25Z" fill="#7761FF" stroke="#7761FF"/>
</svg>
