<svg width="25" height="24" viewBox="0 0 25 24" fill="none" xmlns="http://www.w3.org/2000/svg">
<path d="M14.4933 3.19919L14.4936 3.19938L20.2535 7.22931C20.2535 7.22933 20.2536 7.22936 20.2536 7.22938C20.7228 7.55784 21.1671 8.09641 21.4945 8.72359C21.8219 9.3508 22.0102 10.024 22.0102 10.5997V17.3797C22.0102 19.6536 20.1641 21.4997 17.8902 21.4997H7.11023C4.83778 21.4997 2.99023 19.645 2.99023 17.3697V10.4697C2.99023 9.93526 3.16062 9.29618 3.45881 8.69056C3.75686 8.08521 4.1613 7.55657 4.58775 7.22394L4.58786 7.22386L9.59648 3.31493C9.5967 3.31476 9.59692 3.31459 9.59714 3.31442C10.934 2.27913 13.103 2.2251 14.4933 3.19919ZM12.5002 19.2497C13.1864 19.2497 13.7502 18.6858 13.7502 17.9997V14.9997C13.7502 14.3136 13.1864 13.7497 12.5002 13.7497C11.8141 13.7497 11.2502 14.3136 11.2502 14.9997V17.9997C11.2502 18.6858 11.8141 19.2497 12.5002 19.2497Z" fill="#7761FF" stroke="#7761FF"/>
</svg>
