<svg width="25" height="24" viewBox="0 0 25 24" fill="none" xmlns="http://www.w3.org/2000/svg">
<path d="M3 12C3 6.76614 7.26614 2.5 12.5 2.5C17.7339 2.5 22 6.76614 22 12C22 17.2339 17.7339 21.5 12.5 21.5C7.26614 21.5 3 17.2339 3 12ZM7 12C7 12.8229 7.6606 13.5 8.5 13.5C9.3394 13.5 10 12.8229 10 12C10 11.1739 9.32614 10.5 8.5 10.5C7.67386 10.5 7 11.1739 7 12ZM11 12C11 12.8229 11.6606 13.5 12.5 13.5C13.3394 13.5 14 12.8229 14 12C14 11.1739 13.3261 10.5 12.5 10.5C11.6739 10.5 11 11.1739 11 12ZM15 12C15 12.8229 15.6606 13.5 16.5 13.5C17.3394 13.5 18 12.8229 18 12C18 11.1739 17.3261 10.5 16.5 10.5C15.6739 10.5 15 11.1739 15 12Z" fill="#7761FF" stroke="#7761FF"/>
</svg>
