<svg width="25" height="24" viewBox="0 0 25 24" fill="none" xmlns="http://www.w3.org/2000/svg">
<path d="M16.7502 3.56V4.01584L17.2041 4.05787C18.4609 4.17424 19.3398 4.60009 19.9288 5.22534C20.5189 5.8518 20.8661 6.72969 20.961 7.83991C20.9606 7.84 20.9604 7.84 20.9602 7.84H20.9602H4.04185C4.04122 7.83968 4.04042 7.83919 4.0396 7.83853C4.1346 6.72896 4.48181 5.85155 5.07168 5.22534C5.66066 4.60009 6.53955 4.17424 7.79633 4.05787L8.25023 4.01584V3.56V2C8.25023 1.86614 8.36637 1.75 8.50023 1.75C8.63409 1.75 8.75023 1.86614 8.75023 2V3.5V4H9.25023H15.7502H16.2502V3.5V2C16.2502 1.86614 16.3664 1.75 16.5002 1.75C16.6341 1.75 16.7502 1.86614 16.7502 2V3.56Z" fill="#7761FF" stroke="#7761FF"/>
<path d="M10.0445 18.5815L10.0593 18.5682L10.073 18.5537C10.335 18.2772 10.5 17.8962 10.5 17.4998C10.5 17.1035 10.335 16.7225 10.073 16.446L10.0593 16.4315L10.0445 16.4182C9.90399 16.2918 9.74625 16.1908 9.57231 16.1183C9.20923 15.967 8.79077 15.967 8.42769 16.1183C8.25375 16.1908 8.09601 16.2918 7.95552 16.4182L7.94072 16.4315L7.92702 16.446C7.66502 16.7225 7.5 17.1035 7.5 17.4998C7.5 17.8962 7.66502 18.2772 7.92702 18.5537L7.94072 18.5682L7.95552 18.5815C8.09601 18.7079 8.25375 18.8089 8.42769 18.8814C8.59884 18.9527 8.79415 18.9998 9 18.9998C9.20585 18.9998 9.40116 18.9527 9.57231 18.8814C9.74625 18.8089 9.90399 18.7079 10.0445 18.5815ZM10.0445 15.0815L10.064 15.0639L10.0816 15.0443C10.2081 14.9038 10.3091 14.7461 10.3815 14.5722C10.4528 14.401 10.5 14.2057 10.5 13.9998C10.5 13.794 10.4528 13.5987 10.3815 13.4275C10.3091 13.2536 10.2081 13.0959 10.0816 12.9554L10.064 12.9358L10.0445 12.9182C9.90399 12.7918 9.74625 12.6908 9.57231 12.6183C9.20923 12.467 8.79077 12.467 8.42769 12.6183C8.25375 12.6908 8.09601 12.7918 7.95552 12.9182L7.93596 12.9358L7.91835 12.9554C7.79191 13.0959 7.69094 13.2536 7.61846 13.4275C7.54715 13.5987 7.5 13.794 7.5 13.9998C7.5 14.2057 7.54715 14.401 7.61846 14.5722C7.69094 14.7461 7.79191 14.9038 7.91835 15.0443L7.93596 15.0639L7.95552 15.0815C8.09601 15.2079 8.25375 15.3089 8.42769 15.3814C8.59884 15.4527 8.79415 15.4998 9 15.4998C9.20585 15.4998 9.40116 15.4527 9.57231 15.3814C9.74625 15.3089 9.90399 15.2079 10.0445 15.0815ZM13.5445 15.0815L13.5593 15.0682L13.573 15.0537C13.835 14.7772 14 14.3962 14 13.9998C14 13.6035 13.835 13.2225 13.573 12.946L13.5593 12.9315L13.5445 12.9182C13.4061 12.7937 13.251 12.6938 13.0802 12.6216C12.7125 12.4559 12.2875 12.4559 11.9198 12.6216C11.749 12.6938 11.5939 12.7937 11.4555 12.9182L11.4407 12.9315L11.427 12.946C11.165 13.2225 11 13.6035 11 13.9998C11 14.3962 11.165 14.7772 11.427 15.0537L11.4407 15.0682L11.4555 15.0815C11.596 15.2079 11.7538 15.3089 11.9277 15.3814C12.0988 15.4527 12.2941 15.4998 12.5 15.4998C12.7059 15.4998 12.9012 15.4527 13.0723 15.3814C13.2462 15.3089 13.404 15.2079 13.5445 15.0815ZM4.5 10.3398H20.5C20.7739 10.3398 21 10.566 21 10.8398V16.9998C21 18.4232 20.6441 19.5329 19.9461 20.2846C19.2543 21.0296 18.1547 21.4998 16.5 21.4998H8.5C6.8453 21.4998 5.74565 21.0296 5.0539 20.2846C4.35591 19.5329 4 18.4232 4 16.9998V10.8398C4 10.566 4.22614 10.3398 4.5 10.3398Z" fill="#7761FF" stroke="#7761FF"/>
</svg>
