<svg width="25" height="24" viewBox="0 0 25 24" fill="none" xmlns="http://www.w3.org/2000/svg">

<path d="M11.9147 12.6337C11.2009 11.4751 9.83494 10.67 8.47 10.67L8.46749 10.67L3 10.6975V7.81C3 6.08944 3.51093 4.77618 4.39355 3.89355C5.27618 3.01093 6.58944 2.5 8.31 2.5H16.69C18.4106 2.5 19.7238 3.01093 20.6064 3.89355C21.4891 4.77618 22 6.08944 22 7.81V12H18.484C18.4796 11.998 18.4748 11.9957 18.4697 11.9931C18.4584 11.9874 18.4466 11.9808 18.4347 11.9738C18.4229 11.9667 18.4121 11.9596 18.4026 11.9529C18.4006 11.9515 18.3987 11.9501 18.3969 11.9488L17.3826 10.0274C17.3825 10.0273 17.3825 10.0272 17.3825 10.0271C16.8975 9.10471 16.0205 8.52875 15.0337 8.58069C14.0432 8.63282 13.2435 9.29928 12.8554 10.2751C12.8554 10.2752 12.8554 10.2752 12.8554 10.2753L11.9147 12.6337Z" fill="#7761FF" stroke="#7761FF"/>
<path d="M22 14.4997V16.1897C22 17.8778 21.5099 19.1718 20.6614 20.0512C19.8137 20.9299 18.553 21.4521 16.8986 21.4898L16.8865 21.4901L16.8744 21.4909C16.7554 21.4994 16.6239 21.4997 16.47 21.4997H8.47C8.35527 21.4997 8.25862 21.4993 8.17527 21.4917L8.15692 21.49L8.1385 21.4897C6.4746 21.4614 5.20449 20.9413 4.34995 20.0613C3.49466 19.1806 3 17.8821 3 16.1897V13.1972L8.48 13.1697C8.48038 13.1697 8.48076 13.1697 8.48114 13.1697C8.73548 13.17 9.03614 13.2698 9.30843 13.4553C9.5812 13.6412 9.78257 13.8839 9.8735 14.1196L9.87348 14.1196L9.8751 14.1237L11.0151 17.0037L11.0158 17.0054C11.0959 17.2056 11.2019 17.3919 11.3432 17.5357C11.4867 17.6817 11.6924 17.8072 11.9487 17.8072C12.206 17.8072 12.412 17.6809 12.5552 17.5329C12.6952 17.3882 12.7986 17.2014 12.8758 17.0015L15.172 11.201L16.2074 13.1622C16.2075 13.1624 16.2075 13.1625 16.2076 13.1627C16.4144 13.5559 16.7627 13.8845 17.141 14.1136C17.5196 14.3428 17.9733 14.4997 18.42 14.4997H22Z" fill="#7761FF" stroke="#7761FF"/>
<path d="M2.50021 12.7002V16.0102C2.48021 15.6902 2.47021 15.3502 2.47021 15.0002V12.7002H2.50021Z" fill="#7761FF"/>
</svg>


