<svg width="25" height="24" viewBox="0 0 25 24" fill="none" xmlns="http://www.w3.org/2000/svg">
<path d="M17.5 9C17.5 12.87 14.14 16 10 16L9.07001 17.12L8.52 17.78C8.05 18.34 7.15 18.22 6.84 17.55L5.5 14.6C3.68 13.32 2.5 11.29 2.5 9C2.5 5.13 5.86 2 10 2C13.02 2 15.63 3.67001 16.8 6.07001C17.25 6.96001 17.5 7.95 17.5 9Z" stroke="#B0B0B0" stroke-width="1.5" stroke-linecap="round" stroke-linejoin="round"/>
<path d="M22.4998 12.8603C22.4998 15.1503 21.3198 17.1803 19.4998 18.4603L18.1598 21.4103C17.8498 22.0803 16.9498 22.2103 16.4798 21.6403L14.9998 19.8603C12.5798 19.8603 10.4198 18.7903 9.06982 17.1203L9.99982 16.0003C14.1398 16.0003 17.4998 12.8703 17.4998 9.00031C17.4998 7.95031 17.2498 6.96031 16.7998 6.07031C20.0698 6.82031 22.4998 9.58029 22.4998 12.8603Z" stroke="#B0B0B0" stroke-width="1.5" stroke-linecap="round" stroke-linejoin="round"/>
<path d="M7.5 9H12.5" stroke="#B0B0B0" stroke-width="1.5" stroke-linecap="round" stroke-linejoin="round"/>
</svg>
