<svg width="25" height="24" viewBox="0 0 25 24" fill="none" xmlns="http://www.w3.org/2000/svg">
<path d="M9.47021 22H15.4702C20.4702 22 22.4702 20 22.4702 15V9C22.4702 4 20.4702 2 15.4702 2H9.47021C4.47021 2 2.47021 4 2.47021 9V15C2.47021 20 4.47021 22 9.47021 22Z" stroke="#B0B0B0" stroke-width="1.5" stroke-linecap="round" stroke-linejoin="round"/>
<path d="M2.47021 12.7001L8.47021 12.6801C9.22021 12.6801 10.0602 13.2501 10.3402 13.9501L11.4802 16.8301C11.7402 17.4801 12.1502 17.4801 12.4102 16.8301L14.7002 11.0201C14.9202 10.4601 15.3302 10.4401 15.6102 10.9701L16.6502 12.9401C16.9602 13.5301 17.7602 14.0101 18.4202 14.0101H22.4802" stroke="#B0B0B0" stroke-width="1.5" stroke-linecap="round" stroke-linejoin="round"/>
</svg>
